<mxfile host="app.diagrams.net" modified="2024-02-24T18:15:48.777Z" agent="Mozilla/5.0 (Windows NT 10.0; WOW64) AppleWebKit/537.36 (KHTML, like Gecko) Chrome/86.0.4240.198 Safari/537.36" etag="5ae_SzIuVY_-9QiVJDUx" version="23.1.6" type="github">
  <diagram name="第 1 页" id="tHsyJdGhP5qVih5wyyVZ">
    <mxGraphModel dx="936" dy="543" grid="1" gridSize="10" guides="1" tooltips="1" connect="1" arrows="1" fold="1" page="1" pageScale="1" pageWidth="4681" pageHeight="3300" math="0" shadow="0">
      <root>
        <mxCell id="0" />
        <mxCell id="1" parent="0" />
      </root>
    </mxGraphModel>
  </diagram>
</mxfile>
